HIERARCHY
ROOT Hips
{
	OFFSET 0.000000 0.000000 0.000000
	CHANNELS 6 Xposition Yposition Zposition Zrotation Xrotation Yrotation
	JOINT Spine
	{
		OFFSET 0.000000 -0.000000 0.070167
		CHANNELS 6 Xposition Yposition Zposition Zrotation Xrotation Yrotation
		JOINT Spine1
		{
			OFFSET 0.000000 -0.000000 0.166666
			CHANNELS 6 Xposition Yposition Zposition Zrotation Xrotation Yrotation
			JOINT Neck
			{
				OFFSET 0.000000 -0.000000 0.183780
				CHANNELS 6 Xposition Yposition Zposition Zrotation Xrotation Yrotation
				JOINT Head
				{
					OFFSET 0.000000 -0.017114 0.132633
					CHANNELS 6 Xposition Yposition Zposition Zrotation Xrotation Yrotation
					End Site
					{
						OFFSET 0.000000 -0.000000 0.171140
					}
				}
			}
			JOINT LeftShoulder
			{
				OFFSET 0.034466 0.004091 0.144174
				CHANNELS 6 Xposition Yposition Zposition Zrotation Xrotation Yrotation
				JOINT LeftArm
				{
					OFFSET 0.121044 0.000000 0.000000
					CHANNELS 6 Xposition Yposition Zposition Zrotation Xrotation Yrotation
					JOINT LeftForeArm
					{
						OFFSET 0.257070 0.000000 0.000000
						CHANNELS 6 Xposition Yposition Zposition Zrotation Xrotation Yrotation
						JOINT LeftHand
						{
							OFFSET 0.224060 0.000000 0.000000
							CHANNELS 6 Xposition Yposition Zposition Zrotation Xrotation Yrotation
							End Site
							{
								OFFSET 0.128355 0.000000 0.000000
							}
						}
					}
				}
			}
			JOINT RightShoulder
			{
				OFFSET -0.033538 0.004091 0.144174
				CHANNELS 6 Xposition Yposition Zposition Zrotation Xrotation Yrotation
				JOINT RightArm
				{
					OFFSET -0.121044 0.000000 0.000000
					CHANNELS 6 Xposition Yposition Zposition Zrotation Xrotation Yrotation
					JOINT RightForeArm
					{
						OFFSET -0.257070 0.000000 0.000000
						CHANNELS 6 Xposition Yposition Zposition Zrotation Xrotation Yrotation
						JOINT RightHand
						{
							OFFSET -0.224060 0.000000 0.000000
							CHANNELS 6 Xposition Yposition Zposition Zrotation Xrotation Yrotation
							End Site
							{
								OFFSET -0.128355 0.000000 0.000000
							}
						}
					}
				}
			}
		}
	}
	JOINT LeftUpLeg
	{
		OFFSET 0.085570 0.000000 0.000000
		CHANNELS 6 Xposition Yposition Zposition Zrotation Xrotation Yrotation
		JOINT LeftLeg
		{
			OFFSET 0.000000 0.000000 -0.385526
			CHANNELS 6 Xposition Yposition Zposition Zrotation Xrotation Yrotation
			JOINT LeftFoot
			{
				OFFSET 0.000000 0.000000 -0.365921
				CHANNELS 6 Xposition Yposition Zposition Zrotation Xrotation Yrotation
				JOINT LeftToeBase
				{
					OFFSET 0.000000 -0.128355 -0.055620
					CHANNELS 6 Xposition Yposition Zposition Zrotation Xrotation Yrotation
					End Site
					{
						OFFSET 0.000000 -0.034228 0.000000
					}
				}
			}
		}
	}
	JOINT RightUpLeg
	{
		OFFSET -0.085570 0.000000 0.000000
		CHANNELS 6 Xposition Yposition Zposition Zrotation Xrotation Yrotation
		JOINT RightLeg
		{
			OFFSET 0.000000 0.000000 -0.385526
			CHANNELS 6 Xposition Yposition Zposition Zrotation Xrotation Yrotation
			JOINT RightFoot
			{
				OFFSET 0.000000 0.000000 -0.365921
				CHANNELS 6 Xposition Yposition Zposition Zrotation Xrotation Yrotation
				JOINT RightToeBase
				{
					OFFSET 0.000000 -0.128355 -0.055620
					CHANNELS 6 Xposition Yposition Zposition Zrotation Xrotation Yrotation
					End Site
					{
						OFFSET 0.000000 -0.034228 0.000000
					}
				}
			}
		}
	}
}
MOTION
Frames: 5
Frame Time: 0.016667
0.233629 -0.065664 0.828605 0.124161 -18.344971 3.903690 0.000000 -0.000000 0.070167 15.914674 -6.342496 -7.545606 -0.000000 0.000000 0.166666 6.333104 -10.630439 9.430738 -0.000000 0.000000 0.183780 -15.962569 9.121442 11.513132 0.000000 -0.017114 0.132633 -17.641190 21.646101 2.408128 0.034466 0.004091 0.144174 -4.657341 7.901357 3.896404 0.121044 -0.000000 0.000000 -38.071973 3.375130 55.949337 0.257070 0.000000 0.000000 -78.814372 -1.608251 1.791109 0.224060 -0.000000 -0.000000 -8.466676 -0.763993 8.450000 -0.033538 0.004091 0.144174 -4.043942 -2.948117 6.058856 -0.121044 0.000000 -0.000000 33.998493 -2.560075 -30.682951 -0.257070 0.000000 0.000000 45.700850 -35.334167 31.695554 -0.224060 0.000000 0.000000 32.514917 -38.645832 32.066802 0.085570 -0.000000 0.000000 -14.100244 -0.428590 -6.911865 -0.000000 0.000000 -0.385526 -2.764785 33.066428 0.851065 -0.000000 0.000000 -0.365921 4.288401 6.630801 7.195961 -0.000000 -0.128355 -0.055620 0.000000 -0.000002 -0.000000 -0.085570 -0.000000 0.000000 -6.213975 33.654084 8.381565 -0.000000 0.000000 -0.385526 24.439933 17.921571 -10.507817 -0.000000 0.000000 -0.365921 -44.732562 29.675386 -11.633820 0.000000 -0.128355 -0.055620 -0.000000 -0.000005 0.000002 
0.235231 -0.068213 0.823173 1.738697 -18.907599 3.961844 -0.000000 0.000000 0.070167 17.539395 -5.375993 -8.406953 -0.000000 -0.000000 0.166666 6.877996 -9.011021 11.269413 -0.000000 -0.000000 0.183780 -16.490206 8.717014 12.675396 -0.000000 -0.017114 0.132633 -18.179407 22.246300 0.291103 0.034466 0.004091 0.144174 -4.469377 7.581372 4.308765 0.121044 0.000000 -0.000000 -36.233976 -0.072055 55.061488 0.257070 -0.000000 0.000000 -76.543075 -2.470615 5.101462 0.224060 -0.000000 -0.000000 -9.668175 0.751274 9.508987 -0.033538 0.004091 0.144174 -2.528949 -3.162294 6.633248 -0.121044 -0.000000 0.000000 41.320090 7.732151 -28.282178 -0.257070 0.000000 -0.000000 44.163201 -35.145343 28.660010 -0.224060 0.000000 -0.000000 34.852198 -38.747694 23.246218 0.085570 0.000000 0.000000 -14.351501 -0.255834 -6.671397 0.000000 0.000000 -0.385526 -6.130885 33.793778 2.932772 -0.000000 0.000000 -0.365921 5.620015 3.779326 6.326621 0.000000 -0.128355 -0.055620 -0.000000 0.000001 0.000000 -0.085570 0.000000 0.000000 -5.089892 33.941160 7.508576 -0.000000 0.000000 -0.385526 24.865744 18.376160 -11.178276 0.000000 0.000000 -0.365921 -43.305773 27.346891 -12.525060 -0.000000 -0.128355 -0.055620 0.000003 0.000003 -0.000001 
0.236140 -0.070981 0.817360 3.176708 -19.114076 3.629037 0.000000 -0.000000 0.070167 18.738431 -4.431763 -9.493310 -0.000000 -0.000000 0.166666 7.330683 -7.557010 14.356291 0.000000 -0.000000 0.183780 -17.243704 8.700283 11.548905 0.000000 -0.017114 0.132633 -18.919851 21.572273 0.759864 0.034466 0.004091 0.144174 -3.146726 7.696158 2.697214 0.121044 -0.000000 -0.000000 -40.336205 0.614284 55.449019 0.257070 0.000000 -0.000000 -76.248072 -1.067715 0.406311 0.224060 0.000000 -0.000000 -10.250382 -1.684109 10.396121 -0.033538 0.004091 0.144174 -0.118553 -3.384379 6.666093 -0.121044 0.000000 0.000000 48.210624 18.796633 -27.223976 -0.257070 0.000000 0.000000 46.430560 -36.059287 28.509937 -0.224060 0.000000 -0.000000 38.231356 -41.304309 16.636365 0.085570 -0.000000 0.000000 -14.990614 -0.431568 -6.221641 -0.000000 0.000000 -0.385526 -6.700348 34.463755 3.750436 0.000000 0.000000 -0.365921 4.413635 1.280832 5.471868 0.000000 -0.128355 -0.055620 0.000001 -0.000000 -0.000000 -0.085570 -0.000000 0.000000 -5.370125 33.601826 7.679575 0.000000 0.000000 -0.385526 25.044644 19.123881 -11.334947 -0.000000 0.000000 -0.365921 -41.360357 24.015877 -12.802009 -0.000000 -0.128355 -0.055620 -0.000001 0.000000 -0.000000 
0.236626 -0.073500 0.812101 4.551021 -19.315705 3.142211 0.000000 -0.000000 0.070167 20.205153 -4.051029 -9.308726 -0.000000 -0.000000 0.166666 7.503512 -5.123065 14.465687 0.000000 -0.000000 0.183780 -17.867269 7.575977 12.928589 0.000000 -0.017114 0.132633 -19.792392 21.640566 0.302342 0.034466 0.004091 0.144174 -3.226818 7.022579 4.470275 0.121044 -0.000000 -0.000000 -39.728656 -0.137342 53.991409 0.257070 0.000000 -0.000000 -75.413232 -1.435644 1.145930 0.224060 0.000000 -0.000000 -11.435721 -1.739073 11.833536 -0.033538 0.004091 0.144174 2.250047 -4.485046 8.416109 -0.121044 -0.000000 0.000000 54.458454 27.663762 -28.106555 -0.257070 -0.000000 -0.000000 49.100171 -34.679565 29.574999 -0.224060 -0.000000 -0.000000 40.533901 -42.686261 9.744943 0.085570 -0.000000 -0.000000 -15.909128 -0.605229 -5.664560 -0.000000 0.000000 -0.385526 -6.519334 35.021614 4.357385 0.000000 0.000000 -0.365921 2.908832 -0.700349 3.923521 0.000000 -0.128355 -0.055620 0.000000 -0.000001 0.000001 -0.085570 -0.000000 -0.000000 -6.006919 33.140211 8.186220 0.000000 0.000000 -0.385526 25.033067 19.885338 -11.259599 -0.000000 0.000000 -0.365921 -39.875987 20.463592 -12.630218 -0.000000 -0.128355 -0.055620 -0.000000 -0.000003 -0.000001 
0.237068 -0.075084 0.807529 6.116004 -19.158682 2.629276 0.000000 -0.000000 0.070167 21.343248 -3.584327 -9.853898 -0.000000 -0.000000 0.166666 7.656406 -3.040620 16.160940 -0.000000 -0.000000 0.183780 -18.175065 6.341939 13.941931 0.000000 -0.017114 0.132633 -20.323431 22.680225 -0.998576 0.034466 0.004091 0.144174 -3.134036 5.859396 4.700557 0.121044 -0.000000 -0.000000 -39.318913 -0.156956 53.497829 0.257070 -0.000000 -0.000000 -75.550553 -2.193536 1.478289 0.224060 -0.000000 -0.000000 -11.513391 -2.269208 12.068864 -0.033538 0.004091 0.144174 4.531555 -5.103235 9.580583 -0.121044 0.000000 0.000000 59.407701 32.136429 -28.337060 -0.257070 -0.000000 -0.000000 50.327870 -32.412273 29.358871 -0.224060 -0.000000 -0.000000 39.677351 -43.004906 2.057324 0.085570 0.000000 -0.000000 -17.071826 -1.245501 -5.122164 -0.000000 0.000000 -0.385526 -6.741599 35.475917 5.200002 0.000000 0.000000 -0.365921 2.320527 -2.320281 2.911997 0.000000 -0.128355 -0.055620 0.000000 -0.000004 -0.000001 -0.085570 0.000000 -0.000000 -6.885308 32.160738 8.833619 -0.000000 0.000000 -0.385526 25.106606 20.585207 -11.367250 0.000000 0.000000 -0.365921 -39.525711 16.917195 -11.953035 -0.000000 -0.128355 -0.055620 -0.000003 0.000003 -0.000001 
